<svg width="24" height="23" viewBox="0 0 24 23" fill="none" xmlns="http://www.w3.org/2000/svg">
<path fill-rule="evenodd" clip-rule="evenodd" d="M20.0127 12.9353C19.2555 16.9427 15.7358 19.9736 11.5083 19.9736C7.28076 19.9736 3.76112 16.9427 3.00386 12.9353H0.304564C1.08914 18.4203 5.80632 22.6367 11.5083 22.6367C17.2103 22.6367 21.9275 18.4203 22.712 12.9353H20.0127ZM2.8536 11.4135C2.85326 11.3818 2.85309 11.3501 2.85309 11.3184C2.85309 6.53822 6.72816 2.66314 11.5083 2.66314C16.2884 2.66314 20.1635 6.53822 20.1635 11.3184C20.1635 11.3501 20.1634 11.3818 20.163 11.4135H22.8263C22.8265 11.3818 22.8267 11.3501 22.8267 11.3184C22.8267 5.0674 17.7593 0 11.5083 0C5.25734 0 0.189941 5.0674 0.189941 11.3184C0.189941 11.3501 0.190072 11.3818 0.190333 11.4135H2.8536Z" fill="#456658"/>
<path d="M9.79679 11.7939C9.75993 11.5589 9.41634 11.3183 9.41634 11.3183L12.8404 10.8428C12.8404 10.8428 13.6645 11.2952 13.6964 11.7939C13.7137 12.0638 13.5062 12.4597 13.5062 12.4597H12.7625C12.4066 12.7263 11.8198 13.2209 11.7941 13.601C11.7586 14.1277 12.8404 14.457 12.8404 14.457H9.03589C9.03589 14.457 9.81668 14.0605 9.60656 13.601C9.44018 13.2372 9.03589 12.2695 9.03589 12.2695L9.72423 12.0883C9.77751 11.9924 9.81175 11.8893 9.79679 11.7939Z" fill="#ECB492"/>
<rect y="11.7938" width="5.13606" height="0.760898" rx="0.380449" fill="#ECB492"/>
<rect x="15.4078" y="11.7938" width="7.60898" height="0.760898" rx="0.380449" fill="#ECB492"/>
<rect x="4.375" y="10.6525" width="14.4571" height="0.760898" rx="0.380449" fill="#ECB492"/>
<path d="M11.3181 4.37512C7.79863 4.37512 4.94556 7.18561 4.94556 10.6525H11.3181H17.6906C17.6906 7.18561 14.8375 4.37512 11.3181 4.37512Z" fill="#ECB492"/>
<rect x="5.89685" y="11.7938" width="8.94055" height="0.760898" rx="0.380449" fill="#ECB492"/>
<rect x="7.4187" y="14.2668" width="10.2721" height="0.760898" rx="0.380449" fill="#ECB492"/>
</svg>
